<svg xmlns="http://www.w3.org/2000/svg" xmlns:xlink="http://www.w3.org/1999/xlink" width="500" zoomAndPan="magnify" viewBox="0 0 375 374.999991" height="500" preserveAspectRatio="xMidYMid meet" version="1.0"><defs><clipPath id="b3604ca224"><path d="M 18.75 18.75 L 356.25 18.75 L 356.25 356.25 L 18.75 356.25 Z M 18.75 18.75 " clip-rule="nonzero"/></clipPath><clipPath id="f4f9ed19f5"><path d="M 84 18.75 L 291 18.75 C 327.035156 18.75 356.25 47.964844 356.25 84 L 356.25 291 C 356.25 327.035156 327.035156 356.25 291 356.25 L 84 356.25 C 47.964844 356.25 18.75 327.035156 18.75 291 L 18.75 84 C 18.75 47.964844 47.964844 18.75 84 18.75 Z M 84 18.75 " clip-rule="nonzero"/></clipPath><clipPath id="5739bfdb9e"><path d="M 0.75 0.75 L 338.25 0.75 L 338.25 338.25 L 0.75 338.25 Z M 0.75 0.75 " clip-rule="nonzero"/></clipPath><clipPath id="e7a8751c47"><path d="M 66 0.75 L 273 0.75 C 309.035156 0.75 338.25 29.964844 338.25 66 L 338.25 273 C 338.25 309.035156 309.035156 338.25 273 338.25 L 66 338.25 C 29.964844 338.25 0.75 309.035156 0.75 273 L 0.75 66 C 0.75 29.964844 29.964844 0.75 66 0.75 Z M 66 0.75 " clip-rule="nonzero"/></clipPath><linearGradient x1="128" gradientTransform="matrix(1.318359, 0, 0, 1.318359, 0.750003, 0.749999)" y1="0" x2="128" gradientUnits="userSpaceOnUse" y2="255.999998" id="52f0821644"><stop stop-opacity="1" stop-color="rgb(100%, 100%, 100%)" offset="0"/><stop stop-opacity="1" stop-color="rgb(100%, 100%, 100%)" offset="0.25"/><stop stop-opacity="1" stop-color="rgb(100%, 100%, 100%)" offset="0.3125"/><stop stop-opacity="1" stop-color="rgb(99.885559%, 99.923706%, 99.967957%)" offset="0.34375"/><stop stop-opacity="1" stop-color="rgb(99.606323%, 99.737549%, 99.890137%)" offset="0.359375"/><stop stop-opacity="1" stop-color="rgb(99.276733%, 99.516296%, 99.798584%)" offset="0.375"/><stop stop-opacity="1" stop-color="rgb(98.945618%, 99.29657%, 99.707031%)" offset="0.390625"/><stop stop-opacity="1" stop-color="rgb(98.616028%, 99.076843%, 99.615479%)" offset="0.40625"/><stop stop-opacity="1" stop-color="rgb(98.284912%, 98.855591%, 99.523926%)" offset="0.421875"/><stop stop-opacity="1" stop-color="rgb(97.955322%, 98.635864%, 99.432373%)" offset="0.4375"/><stop stop-opacity="1" stop-color="rgb(97.624207%, 98.414612%, 99.34082%)" offset="0.453125"/><stop stop-opacity="1" stop-color="rgb(97.294617%, 98.194885%, 99.247742%)" offset="0.46875"/><stop stop-opacity="1" stop-color="rgb(96.965027%, 97.975159%, 99.156189%)" offset="0.484375"/><stop stop-opacity="1" stop-color="rgb(96.633911%, 97.753906%, 99.064636%)" offset="0.5"/><stop stop-opacity="1" stop-color="rgb(96.304321%, 97.53418%, 98.973083%)" offset="0.515625"/><stop stop-opacity="1" stop-color="rgb(95.973206%, 97.312927%, 98.881531%)" offset="0.53125"/><stop stop-opacity="1" stop-color="rgb(95.643616%, 97.093201%, 98.789978%)" offset="0.546875"/><stop stop-opacity="1" stop-color="rgb(95.3125%, 96.873474%, 98.698425%)" offset="0.5625"/><stop stop-opacity="1" stop-color="rgb(94.98291%, 96.652222%, 98.606873%)" offset="0.578125"/><stop stop-opacity="1" stop-color="rgb(94.651794%, 96.432495%, 98.51532%)" offset="0.59375"/><stop stop-opacity="1" stop-color="rgb(94.322205%, 96.211243%, 98.423767%)" offset="0.609375"/><stop stop-opacity="1" stop-color="rgb(93.991089%, 95.991516%, 98.332214%)" offset="0.625"/><stop stop-opacity="1" stop-color="rgb(93.661499%, 95.77179%, 98.239136%)" offset="0.640625"/><stop stop-opacity="1" stop-color="rgb(93.331909%, 95.550537%, 98.147583%)" offset="0.65625"/><stop stop-opacity="1" stop-color="rgb(93.083191%, 95.385742%, 98.078918%)" offset="0.664062"/><stop stop-opacity="1" stop-color="rgb(92.869568%, 95.205688%, 97.958374%)" offset="0.671875"/><stop stop-opacity="1" stop-color="rgb(92.576599%, 94.915771%, 97.717285%)" offset="0.679688"/><stop stop-opacity="1" stop-color="rgb(92.254639%, 94.584656%, 97.431946%)" offset="0.6875"/><stop stop-opacity="1" stop-color="rgb(91.932678%, 94.255066%, 97.146606%)" offset="0.695312"/><stop stop-opacity="1" stop-color="rgb(91.610718%, 93.92395%, 96.861267%)" offset="0.703125"/><stop stop-opacity="1" stop-color="rgb(91.288757%, 93.592834%, 96.577454%)" offset="0.710938"/><stop stop-opacity="1" stop-color="rgb(90.966797%, 93.261719%, 96.292114%)" offset="0.71875"/><stop stop-opacity="1" stop-color="rgb(90.644836%, 92.930603%, 96.006775%)" offset="0.726562"/><stop stop-opacity="1" stop-color="rgb(90.322876%, 92.599487%, 95.721436%)" offset="0.734375"/><stop stop-opacity="1" stop-color="rgb(90.000916%, 92.268372%, 95.436096%)" offset="0.742188"/><stop stop-opacity="1" stop-color="rgb(89.680481%, 91.937256%, 95.150757%)" offset="0.75"/><stop stop-opacity="1" stop-color="rgb(89.358521%, 91.60614%, 94.865417%)" offset="0.757812"/><stop stop-opacity="1" stop-color="rgb(89.03656%, 91.275024%, 94.580078%)" offset="0.765625"/><stop stop-opacity="1" stop-color="rgb(88.7146%, 90.943909%, 94.294739%)" offset="0.773437"/><stop stop-opacity="1" stop-color="rgb(88.392639%, 90.612793%, 94.009399%)" offset="0.78125"/><stop stop-opacity="1" stop-color="rgb(88.070679%, 90.281677%, 93.72406%)" offset="0.789062"/><stop stop-opacity="1" stop-color="rgb(87.748718%, 89.950562%, 93.438721%)" offset="0.796875"/><stop stop-opacity="1" stop-color="rgb(87.426758%, 89.619446%, 93.153381%)" offset="0.804687"/><stop stop-opacity="1" stop-color="rgb(87.104797%, 89.28833%, 92.868042%)" offset="0.8125"/><stop stop-opacity="1" stop-color="rgb(86.782837%, 88.957214%, 92.582703%)" offset="0.820312"/><stop stop-opacity="1" stop-color="rgb(86.460876%, 88.626099%, 92.297363%)" offset="0.828125"/><stop stop-opacity="1" stop-color="rgb(86.138916%, 88.296509%, 92.012024%)" offset="0.835937"/><stop stop-opacity="1" stop-color="rgb(85.816956%, 87.965393%, 91.726685%)" offset="0.84375"/><stop stop-opacity="1" stop-color="rgb(85.494995%, 87.634277%, 91.441345%)" offset="0.851562"/><stop stop-opacity="1" stop-color="rgb(85.173035%, 87.303162%, 91.156006%)" offset="0.859375"/><stop stop-opacity="1" stop-color="rgb(84.851074%, 86.972046%, 90.870667%)" offset="0.867187"/><stop stop-opacity="1" stop-color="rgb(84.529114%, 86.64093%, 90.585327%)" offset="0.875"/><stop stop-opacity="1" stop-color="rgb(84.207153%, 86.309814%, 90.299988%)" offset="0.882813"/><stop stop-opacity="1" stop-color="rgb(83.885193%, 85.978699%, 90.014648%)" offset="0.890625"/><stop stop-opacity="1" stop-color="rgb(83.563232%, 85.647583%, 89.729309%)" offset="0.898438"/><stop stop-opacity="1" stop-color="rgb(83.242798%, 85.316467%, 89.44397%)" offset="0.90625"/><stop stop-opacity="1" stop-color="rgb(82.920837%, 84.985352%, 89.15863%)" offset="0.914063"/><stop stop-opacity="1" stop-color="rgb(82.598877%, 84.654236%, 88.873291%)" offset="0.921875"/><stop stop-opacity="1" stop-color="rgb(82.276917%, 84.32312%, 88.587952%)" offset="0.929688"/><stop stop-opacity="1" stop-color="rgb(81.954956%, 83.992004%, 88.304138%)" offset="0.9375"/><stop stop-opacity="1" stop-color="rgb(81.632996%, 83.660889%, 88.018799%)" offset="0.945312"/><stop stop-opacity="1" stop-color="rgb(81.311035%, 83.329773%, 87.733459%)" offset="0.953125"/><stop stop-opacity="1" stop-color="rgb(80.989075%, 82.998657%, 87.44812%)" offset="0.960938"/><stop stop-opacity="1" stop-color="rgb(80.667114%, 82.667542%, 87.162781%)" offset="0.96875"/><stop stop-opacity="1" stop-color="rgb(80.345154%, 82.336426%, 86.877441%)" offset="0.976562"/><stop stop-opacity="1" stop-color="rgb(80.023193%, 82.006836%, 86.592102%)" offset="0.984375"/><stop stop-opacity="1" stop-color="rgb(79.701233%, 81.67572%, 86.306763%)" offset="0.992188"/><stop stop-opacity="1" stop-color="rgb(79.379272%, 81.344604%, 86.021423%)" offset="1"/></linearGradient><clipPath id="2451484de4"><rect x="0" width="339" y="0" height="339"/></clipPath><clipPath id="b71d331d16"><path d="M 46.148438 21.398438 L 342 21.398438 L 342 347 L 46.148438 347 Z M 46.148438 21.398438 " clip-rule="nonzero"/></clipPath><clipPath id="2bd0f205bf"><path d="M 37.214844 -54.675781 L 403.042969 9.664062 L 336.753906 386.585938 L -29.082031 322.238281 Z M 37.214844 -54.675781 " clip-rule="nonzero"/></clipPath><clipPath id="d51e40b143"><path d="M -143.3125 -86.429688 L 607.746094 45.675781 L 508.796875 608.277344 L -242.269531 476.179688 Z M -143.3125 -86.429688 " clip-rule="nonzero"/></clipPath></defs><g clip-path="url(#b3604ca224)"><g clip-path="url(#f4f9ed19f5)"><g transform="matrix(1, 0, 0, 1, 18, 18)"><g clip-path="url(#2451484de4)"><g clip-path="url(#5739bfdb9e)"><g clip-path="url(#e7a8751c47)"><path fill="url(#52f0821644)" d="M 0.75 0.75 L 0.75 338.25 L 338.25 338.25 L 338.25 0.75 Z M 0.75 0.75 " fill-rule="nonzero"/></g></g></g></g></g></g><g clip-path="url(#b71d331d16)"><g clip-path="url(#2bd0f205bf)"><g clip-path="url(#d51e40b143)"><path fill="#2674bf" d="M 335.96875 241.417969 L 214.988281 242.15625 L 246.492188 167.117188 L 238.234375 161.996094 L 231.875 177.363281 C 230.613281 161.746094 215.503906 133.179688 201.21875 122.519531 C 195.746094 94.714844 213.933594 67.484375 227.308594 57.519531 L 230.539062 59.921875 C 230.933594 56.695312 231.515625 53.738281 233.882812 51.355469 L 230.019531 52.503906 L 196.28125 -26.683594 L 226.097656 53.648438 C 197.035156 63.429688 175.453125 92.414062 166.425781 121.910156 C 153.886719 112.640625 133.625 109.597656 133.457031 132.59375 C 131.992188 136.96875 135.683594 148.988281 140.988281 152.226562 C 116.140625 171.382812 105.917969 205.699219 101.308594 242.320312 L 14.449219 184.867188 L 99 245.519531 L 82.710938 244.488281 C 92.675781 257.515625 96.039062 253.84375 116.660156 254.019531 C 116.894531 254.015625 123.195312 257.339844 124.371094 257.3125 C 125.550781 257.273438 121.554688 253.917969 121.730469 253.910156 L 200.332031 252.359375 L 161.832031 346.304688 C 168.710938 345.9375 182.824219 335.3125 185.121094 328.429688 C 193.839844 303.105469 202.566406 277.777344 211.304688 252.453125 L 341.488281 251.515625 Z M 161.832031 148.605469 C 169.101562 142.632812 166.667969 129.378906 167.046875 129.378906 C 167.429688 129.382812 171.820312 146.445312 162.980469 152.496094 C 155.910156 157.339844 144.800781 152 144.910156 151.15625 C 145.011719 150.3125 155.351562 153.875 161.832031 148.605469 Z M 145.269531 242.765625 C 132.839844 242.957031 120.589844 243.242188 108.496094 243.621094 C 115.664062 221.660156 137.136719 185.519531 146.707031 182.578125 C 156.597656 174.996094 164.753906 179.671875 167.699219 188.113281 C 149.738281 201.859375 162.71875 224.351562 185.601562 242.53125 C 172.375 242.449219 158.9375 242.507812 145.277344 242.714844 Z M 194.023438 163.429688 C 181.953125 174.386719 196.632812 204.636719 193.539062 218.265625 C 191.539062 227.246094 185.757812 233.480469 185.390625 233.3125 C 185.023438 233.144531 190.058594 227.089844 191.757812 217.960938 C 193.394531 209.195312 190.527344 205.679688 188.71875 193.585938 C 187.605469 186.207031 184.546875 165.90625 192.566406 161.296875 C 198.039062 158.167969 206.890625 163.335938 206.773438 163.796875 C 206.664062 164.265625 198.898438 160.164062 194.03125 163.378906 Z M 194.023438 163.429688 " fill-opacity="1" fill-rule="nonzero"/></g></g></g></svg>