<svg xmlns="http://www.w3.org/2000/svg" xmlns:xlink="http://www.w3.org/1999/xlink" width="500" zoomAndPan="magnify" viewBox="0 0 375 374.999991" height="500" preserveAspectRatio="xMidYMid meet" version="1.0"><defs><clipPath id="05a510c5cd"><path d="M 9.375 9.375 L 365.625 9.375 L 365.625 365.625 L 9.375 365.625 Z M 9.375 9.375 " clip-rule="nonzero"/></clipPath><clipPath id="15409c5862"><path d="M 74.625 9.375 L 300.375 9.375 C 317.679688 9.375 334.277344 16.25 346.515625 28.484375 C 358.75 40.722656 365.625 57.320312 365.625 74.625 L 365.625 300.375 C 365.625 317.679688 358.75 334.277344 346.515625 346.515625 C 334.277344 358.75 317.679688 365.625 300.375 365.625 L 74.625 365.625 C 57.320312 365.625 40.722656 358.75 28.484375 346.515625 C 16.25 334.277344 9.375 317.679688 9.375 300.375 L 9.375 74.625 C 9.375 57.320312 16.25 40.722656 28.484375 28.484375 C 40.722656 16.25 57.320312 9.375 74.625 9.375 Z M 74.625 9.375 " clip-rule="nonzero"/></clipPath><clipPath id="e868bc2716"><path d="M 0.375 0.375 L 356.625 0.375 L 356.625 356.625 L 0.375 356.625 Z M 0.375 0.375 " clip-rule="nonzero"/></clipPath><clipPath id="0e2e613fd7"><path d="M 65.625 0.375 L 291.375 0.375 C 308.679688 0.375 325.277344 7.25 337.515625 19.484375 C 349.75 31.722656 356.625 48.320312 356.625 65.625 L 356.625 291.375 C 356.625 308.679688 349.75 325.277344 337.515625 337.515625 C 325.277344 349.75 308.679688 356.625 291.375 356.625 L 65.625 356.625 C 48.320312 356.625 31.722656 349.75 19.484375 337.515625 C 7.25 325.277344 0.375 308.679688 0.375 291.375 L 0.375 65.625 C 0.375 48.320312 7.25 31.722656 19.484375 19.484375 C 31.722656 7.25 48.320312 0.375 65.625 0.375 Z M 65.625 0.375 " clip-rule="nonzero"/></clipPath><clipPath id="40a8e55ebd"><rect x="0" width="357" y="0" height="357"/></clipPath><clipPath id="6402d81850"><path d="M 30.8125 9.375 L 345.808594 9.375 L 345.808594 356 L 30.8125 356 Z M 30.8125 9.375 " clip-rule="nonzero"/></clipPath><clipPath id="c7df988b4c"><path d="M 21.15625 -71.722656 L 410.773438 -3.195312 L 340.171875 398.238281 L -49.453125 329.707031 Z M 21.15625 -71.722656 " clip-rule="nonzero"/></clipPath><clipPath id="068e953c30"><path d="M -171.113281 -105.539062 L 628.789062 35.15625 L 523.402344 634.347656 L -276.507812 493.660156 Z M -171.113281 -105.539062 " clip-rule="nonzero"/></clipPath></defs><g clip-path="url(#05a510c5cd)"><g clip-path="url(#15409c5862)"><g transform="matrix(1, 0, 0, 1, 9, 9)"><g clip-path="url(#40a8e55ebd)"><g clip-path="url(#e868bc2716)"><g clip-path="url(#0e2e613fd7)"><path fill="#ffffff" d="M 0.375 0.375 L 356.625 0.375 L 356.625 356.625 L 0.375 356.625 Z M 0.375 0.375 " fill-opacity="1" fill-rule="nonzero"/></g></g></g></g></g></g><g clip-path="url(#6402d81850)"><g clip-path="url(#c7df988b4c)"><g clip-path="url(#068e953c30)"><path fill="#2674bf" d="M 339.335938 243.628906 L 210.488281 244.414062 L 244.042969 164.496094 L 235.246094 159.039062 L 228.472656 175.40625 C 227.128906 158.773438 211.035156 128.351562 195.824219 116.996094 C 189.992188 87.386719 209.363281 58.382812 223.609375 47.769531 L 227.050781 50.328125 C 227.472656 46.894531 228.089844 43.742188 230.609375 41.207031 L 226.496094 42.429688 L 190.5625 -41.90625 L 222.320312 43.648438 C 191.367188 54.066406 168.382812 84.933594 158.765625 116.347656 C 145.414062 106.476562 123.832031 103.238281 123.652344 127.726562 C 122.09375 132.386719 126.027344 145.1875 131.675781 148.636719 C 105.210938 169.039062 94.324219 205.585938 89.414062 244.585938 L -3.09375 183.398438 L 86.957031 248 L 69.605469 246.898438 C 80.222656 260.773438 83.804688 256.863281 105.765625 257.050781 C 106.015625 257.042969 112.726562 260.585938 113.976562 260.554688 C 115.234375 260.515625 110.980469 256.941406 111.167969 256.933594 L 194.878906 255.28125 L 153.875 355.335938 C 161.203125 354.945312 176.234375 343.628906 178.675781 336.300781 C 187.964844 309.328125 197.261719 282.355469 206.5625 255.382812 L 345.214844 254.382812 Z M 153.875 144.78125 C 161.617188 138.421875 159.023438 124.300781 159.429688 124.300781 C 159.835938 124.308594 164.511719 142.480469 155.097656 148.925781 C 147.566406 154.085938 135.734375 148.394531 135.851562 147.496094 C 135.960938 146.601562 146.972656 150.394531 153.875 144.78125 Z M 136.234375 245.0625 C 123 245.265625 109.949219 245.570312 97.070312 245.976562 C 104.703125 222.585938 127.570312 184.09375 137.765625 180.964844 C 148.300781 172.886719 156.988281 177.867188 160.125 186.855469 C 140.996094 201.496094 154.816406 225.449219 179.191406 244.8125 C 165.105469 244.726562 150.789062 244.789062 136.242188 245.007812 Z M 188.160156 160.570312 C 175.304688 172.238281 190.9375 204.457031 187.644531 218.972656 C 185.515625 228.535156 179.355469 235.175781 178.964844 234.996094 C 178.574219 234.816406 183.9375 228.371094 185.75 218.644531 C 187.488281 209.308594 184.4375 205.5625 182.507812 192.6875 C 181.324219 184.828125 178.070312 163.207031 186.605469 158.300781 C 192.4375 154.964844 201.863281 160.46875 201.738281 160.960938 C 201.621094 161.460938 193.351562 157.089844 188.167969 160.515625 Z M 188.160156 160.570312 " fill-opacity="1" fill-rule="nonzero"/></g></g></g></svg>