<?xml version="1.0" standalone="no"?>
<!DOCTYPE svg PUBLIC "-//W3C//DTD SVG 1.1//EN" "http://www.w3.org/Graphics/SVG/1.1/DTD/svg11.dtd">
<svg xmlns="http://www.w3.org/2000/svg" xmlns:xlink="http://www.w3.org/1999/xlink" width="375" zoomAndPan="magnify" viewBox="0 0 375 149.999998" height="150" preserveAspectRatio="xMidYMid meet" version="1.2"><defs><clipPath id="fb345a62a0"><path d="M 2 3 L 128 3 L 128 146 L 2 146 Z M 2 3 "/></clipPath><clipPath id="d899b87750"><path d="M 11.542969 -6.933594 L 151.152344 17.621094 L 125.816406 161.660156 L -13.789062 137.105469 Z M 11.542969 -6.933594 "/></clipPath><clipPath id="4acde80c9a"><path d="M -57.378906 -19.058594 L 229.222656 31.351562 L 191.542969 245.5625 L -95.054688 195.152344 Z M -57.378906 -19.058594 "/></clipPath></defs><g id="d77059dba6"><g clip-rule="nonzero" clip-path="url(#fb345a62a0)"><g clip-rule="nonzero" clip-path="url(#d899b87750)"><g clip-rule="nonzero" clip-path="url(#4acde80c9a)"><path style=" stroke:none;fill-rule:nonzero;fill:#2674bf;fill-opacity:1;" d="M 125.328125 105.917969 L 79.207031 106.199219 L 91.21875 77.59375 L 88.070312 75.640625 L 85.644531 81.5 C 85.164062 75.546875 79.402344 64.65625 73.960938 60.59375 C 71.871094 49.996094 78.808594 39.613281 83.902344 35.816406 L 85.136719 36.730469 C 85.285156 35.503906 85.507812 34.371094 86.410156 33.464844 L 84.9375 33.90625 L 72.078125 3.714844 L 83.445312 34.339844 C 72.363281 38.070312 64.136719 49.117188 60.695312 60.363281 C 55.917969 56.828125 48.191406 55.667969 48.128906 64.433594 C 47.570312 66.101562 48.976562 70.683594 51 71.917969 C 41.523438 79.21875 37.628906 92.300781 35.871094 106.261719 L 2.761719 84.359375 L 34.992188 107.480469 L 28.78125 107.089844 C 32.582031 112.054688 33.863281 110.65625 41.722656 110.722656 C 41.816406 110.71875 44.214844 111.988281 44.664062 111.976562 C 45.113281 111.964844 43.589844 110.683594 43.660156 110.679688 L 73.621094 110.089844 L 58.941406 145.902344 C 61.566406 145.761719 66.949219 141.710938 67.820312 139.089844 C 71.148438 129.433594 74.472656 119.777344 77.800781 110.125 L 127.429688 109.769531 Z M 58.945312 70.539062 C 61.714844 68.261719 60.789062 63.207031 60.933594 63.210938 C 61.078125 63.210938 62.75 69.714844 59.382812 72.023438 C 56.6875 73.867188 52.453125 71.832031 52.492188 71.511719 C 52.53125 71.1875 56.472656 72.546875 58.945312 70.539062 Z M 52.632812 106.433594 C 47.894531 106.503906 43.222656 106.613281 38.613281 106.761719 C 41.347656 98.386719 49.527344 84.609375 53.179688 83.488281 C 56.949219 80.597656 60.058594 82.382812 61.183594 85.597656 C 54.335938 90.839844 59.28125 99.414062 68.007812 106.34375 C 62.964844 106.3125 57.839844 106.335938 52.636719 106.414062 Z M 71.214844 76.191406 C 66.613281 80.367188 72.210938 91.898438 71.03125 97.09375 C 70.269531 100.515625 68.0625 102.894531 67.925781 102.828125 C 67.785156 102.765625 69.707031 100.457031 70.351562 96.976562 C 70.976562 93.636719 69.882812 92.292969 69.195312 87.6875 C 68.769531 84.871094 67.605469 77.136719 70.660156 75.378906 C 72.746094 74.183594 76.121094 76.152344 76.078125 76.328125 C 76.035156 76.507812 73.074219 74.945312 71.21875 76.171875 Z M 71.214844 76.191406 "/></g></g></g><g style="fill:#2674bf;fill-opacity:1;"><g transform="translate(108.492066, 84.511013)"><path style="stroke:none" d="M 30.671875 -19.84375 C 30.671875 -17.1875 29.960938 -14.890625 28.546875 -12.953125 C 27.128906 -11.023438 25.144531 -9.617188 22.59375 -8.734375 L 27.546875 0 L 18.9375 0 L 14.609375 -7.734375 L 10.4375 -7.734375 L 8.90625 0 L 0.671875 0 L 6.484375 -29.125 L 18.9375 -29.125 C 22.65625 -29.125 25.539062 -28.304688 27.59375 -26.671875 C 29.644531 -25.035156 30.671875 -22.757812 30.671875 -19.84375 Z M 22.34375 -19.0625 C 22.34375 -20.25 21.941406 -21.140625 21.140625 -21.734375 C 20.335938 -22.335938 19.210938 -22.640625 17.765625 -22.640625 L 13.4375 -22.640625 L 11.6875 -14.109375 L 16.609375 -14.109375 C 18.429688 -14.109375 19.84375 -14.535156 20.84375 -15.390625 C 21.84375 -16.253906 22.34375 -17.476562 22.34375 -19.0625 Z M 22.34375 -19.0625 "/></g><g transform="translate(139.288351, 84.511013)"><path style="stroke:none" d="M 13.3125 -22.765625 L 12.359375 -17.84375 L 25.296875 -17.84375 L 24.09375 -11.6875 L 11.109375 -11.6875 L 10.0625 -6.359375 L 25.34375 -6.359375 L 24.015625 0 L 0.671875 0 L 6.484375 -29.125 L 29.296875 -29.125 L 28 -22.765625 Z M 13.3125 -22.765625 "/></g><g transform="translate(167.254708, 84.511013)"><path style="stroke:none" d="M 11.53125 0.578125 C 9.113281 0.578125 6.820312 0.285156 4.65625 -0.296875 C 2.5 -0.878906 0.738281 -1.625 -0.625 -2.53125 L 2.625 -8.703125 C 4.09375 -7.753906 5.65625 -7.035156 7.3125 -6.546875 C 8.976562 -6.066406 10.644531 -5.828125 12.3125 -5.828125 C 13.894531 -5.828125 15.125 -6.054688 16 -6.515625 C 16.875 -6.972656 17.3125 -7.601562 17.3125 -8.40625 C 17.3125 -9.09375 16.914062 -9.628906 16.125 -10.015625 C 15.332031 -10.410156 14.101562 -10.832031 12.4375 -11.28125 C 10.550781 -11.78125 8.984375 -12.285156 7.734375 -12.796875 C 6.484375 -13.304688 5.40625 -14.085938 4.5 -15.140625 C 3.601562 -16.203125 3.15625 -17.59375 3.15625 -19.3125 C 3.15625 -21.382812 3.722656 -23.203125 4.859375 -24.765625 C 6.003906 -26.335938 7.628906 -27.550781 9.734375 -28.40625 C 11.847656 -29.269531 14.316406 -29.703125 17.140625 -29.703125 C 19.222656 -29.703125 21.164062 -29.488281 22.96875 -29.0625 C 24.769531 -28.632812 26.320312 -28.019531 27.625 -27.21875 L 24.625 -21.09375 C 23.488281 -21.8125 22.234375 -22.359375 20.859375 -22.734375 C 19.492188 -23.109375 18.085938 -23.296875 16.640625 -23.296875 C 15.003906 -23.296875 13.722656 -23.03125 12.796875 -22.5 C 11.867188 -21.976562 11.40625 -21.300781 11.40625 -20.46875 C 11.40625 -19.75 11.804688 -19.191406 12.609375 -18.796875 C 13.410156 -18.410156 14.660156 -18 16.359375 -17.5625 C 18.242188 -17.09375 19.800781 -16.609375 21.03125 -16.109375 C 22.269531 -15.609375 23.332031 -14.84375 24.21875 -13.8125 C 25.101562 -12.789062 25.546875 -11.445312 25.546875 -9.78125 C 25.546875 -7.726562 24.96875 -5.914062 23.8125 -4.34375 C 22.664062 -2.78125 21.03125 -1.566406 18.90625 -0.703125 C 16.789062 0.148438 14.332031 0.578125 11.53125 0.578125 Z M 11.53125 0.578125 "/></g></g><g style="fill:#2674bf;fill-opacity:1;"><g transform="translate(194.180649, 84.511013)"><path style="stroke:none" d="M 20.09375 -15.734375 L 29.875 0 L 20.6875 0 L 13.984375 -10.484375 L 10.1875 -7.078125 L 8.78125 0 L 0.671875 0 L 6.484375 -29.125 L 14.609375 -29.125 L 12.234375 -17.21875 L 25.375 -29.125 L 35.078125 -29.125 Z M 20.09375 -15.734375 "/></g><g transform="translate(225.476334, 84.511013)"><path style="stroke:none" d="M 6.484375 -29.125 L 14.734375 -29.125 L 8.90625 0 L 0.671875 0 Z M 6.484375 -29.125 "/></g></g><g style="fill:#2674bf;fill-opacity:1;"><g transform="translate(239.584356, 84.511013)"><path style="stroke:none" d="M 16.5625 0.578125 C 13.625 0.578125 11.046875 0.046875 8.828125 -1.015625 C 6.609375 -2.085938 4.898438 -3.59375 3.703125 -5.53125 C 2.503906 -7.476562 1.90625 -9.710938 1.90625 -12.234375 C 1.90625 -15.554688 2.675781 -18.550781 4.21875 -21.21875 C 5.757812 -23.882812 7.914062 -25.960938 10.6875 -27.453125 C 13.46875 -28.953125 16.632812 -29.703125 20.1875 -29.703125 C 22.875 -29.703125 25.253906 -29.222656 27.328125 -28.265625 C 29.410156 -27.316406 30.96875 -25.96875 32 -24.21875 L 26.046875 -19.46875 C 24.628906 -21.75 22.492188 -22.890625 19.640625 -22.890625 C 17.785156 -22.890625 16.148438 -22.453125 14.734375 -21.578125 C 13.316406 -20.703125 12.210938 -19.492188 11.421875 -17.953125 C 10.628906 -16.410156 10.234375 -14.6875 10.234375 -12.78125 C 10.234375 -10.800781 10.867188 -9.210938 12.140625 -8.015625 C 13.421875 -6.828125 15.15625 -6.234375 17.34375 -6.234375 C 20.125 -6.234375 22.5 -7.359375 24.46875 -9.609375 L 29.328125 -4.828125 C 27.753906 -2.910156 25.910156 -1.53125 23.796875 -0.6875 C 21.691406 0.15625 19.28125 0.578125 16.5625 0.578125 Z M 16.5625 0.578125 "/></g><g transform="translate(270.297408, 84.511013)"><path style="stroke:none" d="M 34.15625 -29.125 L 28.328125 0 L 20.09375 0 L 22.34375 -11.3125 L 11.15625 -11.3125 L 8.90625 0 L 0.671875 0 L 6.484375 -29.125 L 14.734375 -29.125 L 12.5625 -18.21875 L 23.765625 -18.21875 L 25.921875 -29.125 Z M 34.15625 -29.125 "/></g></g><g style="fill:#2674bf;fill-opacity:1;"><g transform="translate(303.840404, 84.511013)"><path style="stroke:none" d="M 6.484375 -29.125 L 14.734375 -29.125 L 8.90625 0 L 0.671875 0 Z M 6.484375 -29.125 "/></g></g><g style="fill:#2674bf;fill-opacity:1;"><g transform="translate(317.948415, 84.511013)"><path style="stroke:none" d="M 6.484375 -29.125 L 14.734375 -29.125 L 10.234375 -6.53125 L 24.140625 -6.53125 L 22.796875 0 L 0.671875 0 Z M 6.484375 -29.125 "/></g></g><g style="fill:#2674bf;fill-opacity:1;"><g transform="translate(343.334545, 84.511013)"><path style="stroke:none" d="M 13.3125 -22.765625 L 12.359375 -17.84375 L 25.296875 -17.84375 L 24.09375 -11.6875 L 11.109375 -11.6875 L 10.0625 -6.359375 L 25.34375 -6.359375 L 24.015625 0 L 0.671875 0 L 6.484375 -29.125 L 29.296875 -29.125 L 28 -22.765625 Z M 13.3125 -22.765625 "/></g></g></g></svg>